<svg xmlns="http://www.w3.org/2000/svg" viewBox="0 0 155.3 221.3"><path d="M137.8 104c0-12.6-10.3-22.9-22.9-22.9-6.8 0-13.1 3-17.5 8.1H77.3V81H74v-4.6c21.2-5.2 24.8-22.2 24.8-33 0-9.1-2.5-14.1-4.3-17.7-.9-1.9-1.5-3-1.5-4V1.4H25.9v20.3c0 1-.5 2.1-1.5 4-1.8 3.7-4.3 8.7-4.3 17.7 0 10.8 3.6 27.8 24.8 33V81h-3.4v22c-8.6 5.8-14.3 15.6-14.3 26.8 0 17.8 14.5 32.3 32.3 32.3s32.3-14.5 32.3-32.3c0-11.2-5.7-21-14.3-26.8v-4.8h24.7l1.3-2c2.6-3.8 6.9-6.1 11.5-6.1 7.7 0 13.9 6.2 13.9 13.9 0 6.4-4.2 11.8-10.3 13.4H109v95H90.8v-16.9H68.9c16.3-3.1 14.8-14.9 14.8-25.3h5.2v-6.9H30.1v6.9h5.2c0 10.4-1.5 22.2 14.8 25.3h-22v16.9h-4v9h108.7v-103c3.2-4 5-9 5-14.4zM50.5 89.9h17.9v6.6H50.5v-6.6zm34.3-41.2v-3h4.9c-.1 1-.1 2-.3 3h-4.6zm4.2 2.4c-.2 1-.5 2-.8 3h-3.3v-3H89zm-4.2-7.7v-3h4.8c.1.9.1 1.9.1 3h-4.9zm3.9-8.4c.3.9.5 1.9.7 3H78.6v-3h10.1zm-1.5 21.4c-.5 1.1-1.1 2.1-1.8 3h-6.8v-3h8.6zM34.9 21.7V10.4H84v11.3c0 3 1.1 5.3 2.2 7.6-2-.4-4.5-.7-7.6-.7-13.6 0-13.6 5.3-27.2 5.3-7.1 0-10.5-1.5-14.1-2.9-.1.1-.1.2-.2.3-1.5 2.9-3 6-3 12 0 9.3 2.9 15.2 9.3 18.5l-2.1 3.9C33.1 62 29.1 54.6 29.1 43.4c0-7 1.8-10.6 3.4-13.7 1.1-2.5 2.4-4.9 2.4-8zm19 56.3H65v3H53.9v-3zm28.8 51.7c0 12.8-10.4 23.3-23.3 23.3s-23.3-10.4-23.3-23.3c0-9.2 5.4-17.2 13.2-21v36h9v-36.3h2.2v36.3h9v-36c7.8 3.9 13.2 11.8 13.2 21zm-45.6 74.7h44.8v1.7H37.1v-1.7zm86.6 7.9H118v-86h5.8v86z"/></svg>