<svg xmlns="http://www.w3.org/2000/svg" viewBox="0 0 155.3 221.3"><path d="M41.8 128.3l1.9 15.6c-2.3-1-4.9-1.6-7.5-1.6-9.8 0-17.8 8-17.8 17.8 0 15.8 10.2 22.1 18.3 27.2 6.4 4 11.9 7.4 13.9 14.5l.3 2.6c1.2 9.7 9.4 16.9 19.1 16.9h26.9c9.7 0 17.9-7.3 19.1-16.9l9.1-76.1H41.8zm73 9l-2 17.1c-.8 0-1.7-.1-2.6-.1-15.3 0-15.3 6-30.7 6-10.2 0-13.6-2.7-19.3-4.4l5.1 46.9-5.5.6v-.1l-5.2-43.5c0-1-.1-2-.3-3l-.2-2.2-2.1-17.3h62.8zm-73.3 42.4c-7.9-4.9-14.1-8.8-14.1-19.6 0-4.8 3.9-8.8 8.8-8.8 4.3 0 8.2 3.2 9.3 7l3.1 26c-2.4-1.7-4.8-3.2-7.1-4.6z"/></svg>