<svg xmlns="http://www.w3.org/2000/svg" viewBox="0 0 155.3 221.3"><path d="M94.4 196.5v-19.7h.9c9.7 0 17.9-7.3 19.1-16.9l9.1-76.1h-3.1c-.6-1.9-1.7-4-3.7-6 .7-1.7 1-3.7.8-5.8-.6-6-4.8-11.1-10.7-13-3.5-1.1-5.5-6.9-6-8.8l-1.4-6.1-5.3 3.2c-7.2 4.4-14.7 6.5-21.3 8.4-8.2 2.4-14.8 4.2-17.6 9.7-1.1 2.1-1.4 4.5-1.1 7.2-5.8 2.9-9.5 6.7-10.8 11.1h-3.1l2 16.6c-.1 2.7-2.4 3.6-5.1 3.3-.3-.1-.6-.1-.9-.1-3.2-.4-6.2.8-8.7 3.3-5.8 6.1-7.4 19-5.8 28.1 1.7 10.3 8.2 20.6 15.1 23.9 1.7.8 3.3 1.2 5 1.2 1.2 0 2.4-.2 3.5-.7 2-.8 3.7-.9 4 .7 1.3 9.5 9.4 16.6 19 16.6h.9v19.7c-13.9 1.1-28.5 4.1-28.5 12.2 0 6.3 8.1 8.8 14.2 10.2 7.2 1.6 16.7 2.5 26.8 2.5 10.1 0 19.6-.9 26.8-2.5 6.1-1.4 14.2-3.9 14.2-10.2.2-7.9-14.5-11-28.3-12zm-36.1-37.7l-5.4-45.5-.3-3.2-2.1-17.3h62.9l-2 17.1c-.8 0-1.7-.1-2.6-.1-15.3 0-15.3 6-30.7 6-10.2 0-13.6-2.7-19.3-4.4l5.1 46.9-5.6.5zM61 79.5c3.3-1.3 7.2-2.3 11.4-2.8l-1.2-8.9c-2.7.4-5.3.9-7.8 1.6 1.5-1.9 6.7-3.4 11.8-4.9 5.5-1.6 12-3.5 18.7-6.8 1.8 3.7 4.9 8.2 10 9.9 2.7.9 4 2.9 4.4 4.6-2.1-1-4.5-1.9-7-2.6l-2.5 8.7c3.6 1 6.7 2.4 9 3.9.8.5 1.5 1.1 2 1.6H53.7c1.6-1.6 4.2-3.1 7.3-4.3zm-18.9 71.6c-.3.2-1-.2-1.2-.3-3.7-1.8-8.8-9.3-10.1-17.3-1.4-8.4.7-17.5 3.5-20.4.4-.4.7-.6 1-.6h.1c4.2.5 6.5 5.6 8.8 18.8 1.9 12.6.2 18.5-2.1 19.8zm39.8 61.2c-14.8 0-25-2-29.7-3.7 3.1-1.1 8.7-2.4 17.2-3.2v3.2h9v-31.9h7v31.9h9v-3.2c8.6.7 14.2 2 17.2 3.2-4.7 1.8-14.9 3.7-29.7 3.7z"/></svg>