<svg xmlns="http://www.w3.org/2000/svg" viewBox="0 0 172 251.7"><path d="M167.4 127.7l-19.1-25.3h.9V53.5h-2.6l-3.4-38.7v-.2h-.2c-3.3-8.3-33.3-11.2-54.6-11.2-13.9 0-33.3 2.2-49.7 11.2h-1.6l-.1.8c-8.3 4.8-15.7 11.4-21.1 20.5C-.4 63.2 2.8 89 7.2 89.6c1.2.2 3.7.1 6.7.1v9.8h9V90c3.6.3 6.7.9 8.2 2.2v10.2h2.5v137.3h.2c.9 5.9 6 10.4 12.1 10.4h88.7c6.1 0 11.2-4.5 12.1-10.4h.2V134.1l4.4 5.8c2.1 2.8 6.2 3.4 9 1.3l6-4.5c2.6-2.1 3.2-6.2 1.1-9zM40 62.5h100.1v29.1l-14.2-18.8c-2.1-2.8-6.2-3.4-9-1.3l-6 4.5c-2.8 2.1-3.4 6.2-1.3 9l6.3 8.4H40V62.5zm2.9-11.2l2.5-27.8h89.5l2.5 27.8H42.9zm94.8 179.4H42.5V102.4h80.3l14.9 19.8v108.5z"/></svg>