<svg xmlns="http://www.w3.org/2000/svg" viewBox="0 0 164.3 192.7"><path d="M146.4 28.3h-32v.1L91 16.4h-7.5L86.1 2H70.5l2.6 14.5h-7.5l-30 15.3H8.9l27.2 31.9 6 41.2v11.8l-9.6 76H124l-9.6-76.4v-11.2l7.9-53.8H139v-3.8c2.7-.4 5.9-.2 7.2 2.5 2.3 5-2.8 8-2.7 14.1.2 6.2 1.8 9.3.5 13-1.3 3.7-3.8 5.2-4.2 9.3-.3 4.2 2 13.7-3.3 15.2-2.2.6-4.6.4-6.5-.1-2-.5-3.8 1.4-3.3 3.4l1.8 6.9h19.2l15.2-63.2-16.5-20.3zm-41 84.1H51.2V109h54.2v3.4zM50.6 100l-8.7-59.2h72.5v2L106 100H50.6zm17.2-74.6h21.1l12.4 6.3H55.4l12.4-6.3zM28.4 40.8h4.3l.9 6.1-5.2-6.1zm14.4 142.9l7.9-62.3H106l7.9 62.3H42.8zm87.1-141.4h-6.3l.7-5h5.6v5z"/></svg>