<svg xmlns="http://www.w3.org/2000/svg" viewBox="0 0 205.7 223.3"><path d="M203.4 93.6c0-33.2-30.1-40.5-52-39.9-1.6-4.7-3.4-9.5-5.3-14.3-1.4-11-25.2-14-37.5-14.8v-7.2c3.7-2.6 6-6.3 6-9.1 0-5.1-7.4-5.6-16.5-5.6s-16.5.5-16.5 5.5c0 2.8 2.3 6.5 6 9.1v7.2c-10.2.7-28.4 2.9-35 9.9l-21 1.6L26 48.4 42.5 56C22.7 107.5 30 165.4 63.8 221.2l1.3 2.2h65.8l1.3-2c6.8-10.4 12.5-21.1 17.1-32 21.3-17.5 54.1-60.8 54.1-95.8zm-106.9-59V23.3h3.1v11.4h9v-1c6.8.5 12.4 1.3 16.8 2.3H70.7c4.4-1 10-1.9 16.8-2.3v1h9zm-57.3 10l8.6-.7c-.6 1.2-1.2 2.5-1.7 3.7l-6.9-3zM126 214.3H70.3C36 156.4 31.4 96.5 57.2 44.9h7.1c-19.9 42.4-20.8 89.8-2.4 137.6l8.4-3.2c-18-47-16.6-93.4 4-134.4h64.3c24.2 61.4 20 118.3-12.6 169.4zM155.2 66c17.3.4 33.5 7.8 33.5 31.3 0 23.3-14.9 47.4-30.4 64.2 7.3-30.3 6.2-62.3-3.1-95.5z"/></svg>