<svg xmlns="http://www.w3.org/2000/svg"><symbol id="creat_icon_kettle" viewBox="0 0 164.3 192.7"><path d="M146.4 28.3h-32v.1L91 16.4h-7.5L86.1 2H70.5l2.6 14.5h-7.5l-30 15.3H8.9l27.2 31.9 6 41.2v11.8l-9.6 76H124l-9.6-76.4v-11.2l7.9-53.8H139v-3.8c2.7-.4 5.9-.2 7.2 2.5 2.3 5-2.8 8-2.7 14.1.2 6.2 1.8 9.3.5 13-1.3 3.7-3.8 5.2-4.2 9.3-.3 4.2 2 13.7-3.3 15.2-2.2.6-4.6.4-6.5-.1-2-.5-3.8 1.4-3.3 3.4l1.8 6.9h19.2l15.2-63.2-16.5-20.3zm-41 84.1H51.2V109h54.2v3.4zM50.6 100l-8.7-59.2h72.5v2L106 100H50.6zm17.2-74.6h21.1l12.4 6.3H55.4l12.4-6.3zM28.4 40.8h4.3l.9 6.1-5.2-6.1zm14.4 142.9l7.9-62.3H106l7.9 62.3H42.8zm87.1-141.4h-6.3l.7-5h5.6v5z"/></symbol><symbol id="creat_icon_pot" viewBox="0 0 205.7 223.3"><path d="M203.4 93.6c0-33.2-30.1-40.5-52-39.9-1.6-4.7-3.4-9.5-5.3-14.3-1.4-11-25.2-14-37.5-14.8v-7.2c3.7-2.6 6-6.3 6-9.1 0-5.1-7.4-5.6-16.5-5.6s-16.5.5-16.5 5.5c0 2.8 2.3 6.5 6 9.1v7.2c-10.2.7-28.4 2.9-35 9.9l-21 1.6L26 48.4 42.5 56C22.7 107.5 30 165.4 63.8 221.2l1.3 2.2h65.8l1.3-2c6.8-10.4 12.5-21.1 17.1-32 21.3-17.5 54.1-60.8 54.1-95.8zm-106.9-59V23.3h3.1v11.4h9v-1c6.8.5 12.4 1.3 16.8 2.3H70.7c4.4-1 10-1.9 16.8-2.3v1h9zm-57.3 10l8.6-.7c-.6 1.2-1.2 2.5-1.7 3.7l-6.9-3zM126 214.3H70.3C36 156.4 31.4 96.5 57.2 44.9h7.1c-19.9 42.4-20.8 89.8-2.4 137.6l8.4-3.2c-18-47-16.6-93.4 4-134.4h64.3c24.2 61.4 20 118.3-12.6 169.4zM155.2 66c17.3.4 33.5 7.8 33.5 31.3 0 23.3-14.9 47.4-30.4 64.2 7.3-30.3 6.2-62.3-3.1-95.5z"/></symbol><symbol id="creat_icon_termos" viewBox="0 0 172 251.7"><path d="M167.4 127.7l-19.1-25.3h.9V53.5h-2.6l-3.4-38.7v-.2h-.2c-3.3-8.3-33.3-11.2-54.6-11.2-13.9 0-33.3 2.2-49.7 11.2h-1.6l-.1.8c-8.3 4.8-15.7 11.4-21.1 20.5C-.4 63.2 2.8 89 7.2 89.6c1.2.2 3.7.1 6.7.1v9.8h9V90c3.6.3 6.7.9 8.2 2.2v10.2h2.5v137.3h.2c.9 5.9 6 10.4 12.1 10.4h88.7c6.1 0 11.2-4.5 12.1-10.4h.2V134.1l4.4 5.8c2.1 2.8 6.2 3.4 9 1.3l6-4.5c2.6-2.1 3.2-6.2 1.1-9zM40 62.5h100.1v29.1l-14.2-18.8c-2.1-2.8-6.2-3.4-9-1.3l-6 4.5c-2.8 2.1-3.4 6.2-1.3 9l6.3 8.4H40V62.5zm2.9-11.2l2.5-27.8h89.5l2.5 27.8H42.9zm94.8 179.4H42.5V102.4h80.3l14.9 19.8v108.5z"/></symbol><symbol id="loveit_logo" viewBox="0 0 100.39 28.06"><title>loveit_logo</title><path fill="#fff" d="M40.84 6.87h-3.18v14.99h9.26v-2.63h-6.08V6.87zM57.09 10.9a5.78 5.78 0 0 0-2.91-.72 5.38 5.38 0 0 0-4.12 1.56 6.13 6.13 0 0 0-1.49 4.37 7 7 0 0 0 .68 3.16 4.81 4.81 0 0 0 1.94 2.08 5.76 5.76 0 0 0 2.91.72 5.35 5.35 0 0 0 4.12-1.6 6.16 6.16 0 0 0 1.48-4.38 6.91 6.91 0 0 0-.68-3.15 4.79 4.79 0 0 0-1.93-2.04zm-1.13 7.79a2 2 0 0 1-1.8.87 2 2 0 0 1-1.82-.87 4.81 4.81 0 0 1-.56-2.57 4.73 4.73 0 0 1 .55-2.56 2.35 2.35 0 0 1 3.62 0 4.73 4.73 0 0 1 .55 2.55 4.88 4.88 0 0 1-.55 2.58zM67.11 16.93a10.16 10.16 0 0 0-.46 2.35h-.08a11.59 11.59 0 0 0-.46-2.35L63.9 10.4h-3.26l4.37 11.46h3.21l4.35-11.46h-3.25zM78.96 10.18a5.13 5.13 0 0 0-4 1.57 6.36 6.36 0 0 0-1.39 4.46 5.78 5.78 0 0 0 1.56 4.33 5.92 5.92 0 0 0 4.33 1.53 11 11 0 0 0 2.28-.2 7.32 7.32 0 0 0 1.75-.61v-2.42a9.8 9.8 0 0 1-1.93.69 8.59 8.59 0 0 1-2 .21 2.78 2.78 0 0 1-2.07-.75 3 3 0 0 1-.79-2.08h7.39v-1.52a5.24 5.24 0 0 0-1.35-3.82 5 5 0 0 0-3.78-1.39zm-2.19 4.65a2.92 2.92 0 0 1 .65-1.79 2 2 0 0 1 1.56-.63 2 2 0 0 1 1.58.63 2.61 2.61 0 0 1 .6 1.79h-4.39zM86.88 6.87h3.18v14.99h-3.18zM98.42 19.58a1.47 1.47 0 0 1-1-.32 1.22 1.22 0 0 1-.37-1v-5.51h3.21V10.4h-3.2V7.96h-2l-.9 2.42-1.72 1v1.32h1.5v5.53a4.13 4.13 0 0 0 .86 2.85 3.52 3.52 0 0 0 2.73.95 7 7 0 0 0 2.87-.52v-2.29a6.78 6.78 0 0 1-1.98.36zM20 4.37a9.66 9.66 0 1 0 9.66 9.66A9.66 9.66 0 0 0 20 4.37zm0 17.05c-2.44-1-7.79-4.9-7.8-8.87a3.9 3.9 0 0 1 7.37-1.78.48.48 0 0 0 .85 0 3.9 3.9 0 0 1 7.38 1.79c-.01 3.91-5.36 7.85-7.8 8.91z"/><path d="M20 0A14 14 0 0 0 6.11 12.12H1.92A1.92 1.92 0 0 0 0 14.04a1.92 1.92 0 0 0 1.92 1.92h4.2A14 14 0 1 0 20 0zm0 26.06a12 12 0 1 1 12-12 12 12 0 0 1-12 12z" fill="#fff"/></symbol><symbol id="sup_icon_americano" viewBox="0 0 155.3 221.3"><path d="M41.8 128.3l1.9 15.6c-2.3-1-4.9-1.6-7.5-1.6-9.8 0-17.8 8-17.8 17.8 0 15.8 10.2 22.1 18.3 27.2 6.4 4 11.9 7.4 13.9 14.5l.3 2.6c1.2 9.7 9.4 16.9 19.1 16.9h26.9c9.7 0 17.9-7.3 19.1-16.9l9.1-76.1H41.8zm73 9l-2 17.1c-.8 0-1.7-.1-2.6-.1-15.3 0-15.3 6-30.7 6-10.2 0-13.6-2.7-19.3-4.4l5.1 46.9-5.5.6v-.1l-5.2-43.5c0-1-.1-2-.3-3l-.2-2.2-2.1-17.3h62.8zm-73.3 42.4c-7.9-4.9-14.1-8.8-14.1-19.6 0-4.8 3.9-8.8 8.8-8.8 4.3 0 8.2 3.2 9.3 7l3.1 26c-2.4-1.7-4.8-3.2-7.1-4.6z"/></symbol><symbol id="sup_icon_espresso" viewBox="0 0 155.3 221.3"><path d="M54.7 151.9l.8 6.8c.2 1.6-1 3.1-2.6 3.3H52c-7.7 0-14 6.3-14 14 0 7.3 5.5 13.3 12.6 14 5.2 1.3 8.1 3.7 9.5 8l1.2 10c.9 7.6 7.3 13.3 15 13.3h19.3c7.6 0 14.1-5.7 15-13.3l6.7-56.1H54.7zm52.5 9l-1.3 11h-.6c-11 0-11 4.3-22.1 4.3-5.5 0-8.2-1.1-11-2.1l3.5 32.6-5.4.6c0-.1 0-.2-.1-.3l-5.5-46h42.5zM47 176c0-2.8 2.3-5 5-5s5 2.3 5 5c0 2.8-2.3 5-5 5s-5-2.2-5-5z"/></symbol><symbol id="sup_icon_latte" viewBox="0 0 155.3 221.3"><path d="M94.4 196.5v-19.7h.9c9.7 0 17.9-7.3 19.1-16.9l9.1-76.1h-3.1c-.6-1.9-1.7-4-3.7-6 .7-1.7 1-3.7.8-5.8-.6-6-4.8-11.1-10.7-13-3.5-1.1-5.5-6.9-6-8.8l-1.4-6.1-5.3 3.2c-7.2 4.4-14.7 6.5-21.3 8.4-8.2 2.4-14.8 4.2-17.6 9.7-1.1 2.1-1.4 4.5-1.1 7.2-5.8 2.9-9.5 6.7-10.8 11.1h-3.1l2 16.6c-.1 2.7-2.4 3.6-5.1 3.3-.3-.1-.6-.1-.9-.1-3.2-.4-6.2.8-8.7 3.3-5.8 6.1-7.4 19-5.8 28.1 1.7 10.3 8.2 20.6 15.1 23.9 1.7.8 3.3 1.2 5 1.2 1.2 0 2.4-.2 3.5-.7 2-.8 3.7-.9 4 .7 1.3 9.5 9.4 16.6 19 16.6h.9v19.7c-13.9 1.1-28.5 4.1-28.5 12.2 0 6.3 8.1 8.8 14.2 10.2 7.2 1.6 16.7 2.5 26.8 2.5 10.1 0 19.6-.9 26.8-2.5 6.1-1.4 14.2-3.9 14.2-10.2.2-7.9-14.5-11-28.3-12zm-36.1-37.7l-5.4-45.5-.3-3.2-2.1-17.3h62.9l-2 17.1c-.8 0-1.7-.1-2.6-.1-15.3 0-15.3 6-30.7 6-10.2 0-13.6-2.7-19.3-4.4l5.1 46.9-5.6.5zM61 79.5c3.3-1.3 7.2-2.3 11.4-2.8l-1.2-8.9c-2.7.4-5.3.9-7.8 1.6 1.5-1.9 6.7-3.4 11.8-4.9 5.5-1.6 12-3.5 18.7-6.8 1.8 3.7 4.9 8.2 10 9.9 2.7.9 4 2.9 4.4 4.6-2.1-1-4.5-1.9-7-2.6l-2.5 8.7c3.6 1 6.7 2.4 9 3.9.8.5 1.5 1.1 2 1.6H53.7c1.6-1.6 4.2-3.1 7.3-4.3zm-18.9 71.6c-.3.2-1-.2-1.2-.3-3.7-1.8-8.8-9.3-10.1-17.3-1.4-8.4.7-17.5 3.5-20.4.4-.4.7-.6 1-.6h.1c4.2.5 6.5 5.6 8.8 18.8 1.9 12.6.2 18.5-2.1 19.8zm39.8 61.2c-14.8 0-25-2-29.7-3.7 3.1-1.1 8.7-2.4 17.2-3.2v3.2h9v-31.9h7v31.9h9v-3.2c8.6.7 14.2 2 17.2 3.2-4.7 1.8-14.9 3.7-29.7 3.7z"/></symbol><symbol id="sup_icon_siphone" viewBox="0 0 155.3 221.3"><path d="M137.8 104c0-12.6-10.3-22.9-22.9-22.9-6.8 0-13.1 3-17.5 8.1H77.3V81H74v-4.6c21.2-5.2 24.8-22.2 24.8-33 0-9.1-2.5-14.1-4.3-17.7-.9-1.9-1.5-3-1.5-4V1.4H25.9v20.3c0 1-.5 2.1-1.5 4-1.8 3.7-4.3 8.7-4.3 17.7 0 10.8 3.6 27.8 24.8 33V81h-3.4v22c-8.6 5.8-14.3 15.6-14.3 26.8 0 17.8 14.5 32.3 32.3 32.3s32.3-14.5 32.3-32.3c0-11.2-5.7-21-14.3-26.8v-4.8h24.7l1.3-2c2.6-3.8 6.9-6.1 11.5-6.1 7.7 0 13.9 6.2 13.9 13.9 0 6.4-4.2 11.8-10.3 13.4H109v95H90.8v-16.9H68.9c16.3-3.1 14.8-14.9 14.8-25.3h5.2v-6.9H30.1v6.9h5.2c0 10.4-1.5 22.2 14.8 25.3h-22v16.9h-4v9h108.7v-103c3.2-4 5-9 5-14.4zM50.5 89.9h17.9v6.6H50.5v-6.6zm34.3-41.2v-3h4.9c-.1 1-.1 2-.3 3h-4.6zm4.2 2.4c-.2 1-.5 2-.8 3h-3.3v-3H89zm-4.2-7.7v-3h4.8c.1.9.1 1.9.1 3h-4.9zm3.9-8.4c.3.9.5 1.9.7 3H78.6v-3h10.1zm-1.5 21.4c-.5 1.1-1.1 2.1-1.8 3h-6.8v-3h8.6zM34.9 21.7V10.4H84v11.3c0 3 1.1 5.3 2.2 7.6-2-.4-4.5-.7-7.6-.7-13.6 0-13.6 5.3-27.2 5.3-7.1 0-10.5-1.5-14.1-2.9-.1.1-.1.2-.2.3-1.5 2.9-3 6-3 12 0 9.3 2.9 15.2 9.3 18.5l-2.1 3.9C33.1 62 29.1 54.6 29.1 43.4c0-7 1.8-10.6 3.4-13.7 1.1-2.5 2.4-4.9 2.4-8zm19 56.3H65v3H53.9v-3zm28.8 51.7c0 12.8-10.4 23.3-23.3 23.3s-23.3-10.4-23.3-23.3c0-9.2 5.4-17.2 13.2-21v36h9v-36.3h2.2v36.3h9v-36c7.8 3.9 13.2 11.8 13.2 21zm-45.6 74.7h44.8v1.7H37.1v-1.7zm86.6 7.9H118v-86h5.8v86z"/></symbol><symbol id="symbols"/><symbol id="underline"><path fill-rule="evenodd" fill="#48C8FE" d="M108 8V0h185v8H108zM0 0h63v8H0V0z"/></symbol></svg>