<svg xmlns="http://www.w3.org/2000/svg" viewBox="0 0 100.39 28.06"><title>loveit_logo</title><polygon points="40.84 6.87 37.66 6.87 37.66 21.86 46.92 21.86 46.92 19.23 40.84 19.23 40.84 6.87" fill="#fff"/><path d="M58.52,11.43a5.78,5.78,0,0,0-2.91-.72,5.38,5.38,0,0,0-4.12,1.56A6.13,6.13,0,0,0,50,16.64a7,7,0,0,0,.68,3.16,4.81,4.81,0,0,0,1.94,2.08,5.76,5.76,0,0,0,2.91.72A5.35,5.35,0,0,0,59.65,21a6.16,6.16,0,0,0,1.48-4.38,6.91,6.91,0,0,0-.68-3.15A4.79,4.79,0,0,0,58.52,11.43Zm-1.13,7.79a2,2,0,0,1-1.8.87,2,2,0,0,1-1.82-.87,4.81,4.81,0,0,1-.56-2.57,4.73,4.73,0,0,1,.55-2.56,2.35,2.35,0,0,1,3.62,0,4.73,4.73,0,0,1,.55,2.55A4.88,4.88,0,0,1,57.38,19.22Z" transform="translate(-1.43 -0.53)" fill="#fff"/><path d="M68.54,17.46a10.16,10.16,0,0,0-.46,2.35H68a11.59,11.59,0,0,0-.46-2.35l-2.21-6.53H62.07l4.37,11.46h3.21L74,10.93H70.75Z" transform="translate(-1.43 -0.53)" fill="#fff"/><path d="M80.39,10.71a5.13,5.13,0,0,0-4,1.57A6.36,6.36,0,0,0,75,16.74a5.78,5.78,0,0,0,1.56,4.33,5.92,5.92,0,0,0,4.33,1.53,11,11,0,0,0,2.28-.2,7.32,7.32,0,0,0,1.75-.61V19.37a9.8,9.8,0,0,1-1.93.69,8.59,8.59,0,0,1-2,.21,2.78,2.78,0,0,1-2.07-.75,3,3,0,0,1-.79-2.08h7.39V15.92a5.24,5.24,0,0,0-1.35-3.82A5,5,0,0,0,80.39,10.71ZM78.2,15.36a2.92,2.92,0,0,1,.65-1.79,2,2,0,0,1,1.56-.63,2,2,0,0,1,1.58.63,2.61,2.61,0,0,1,.6,1.79H78.2Z" transform="translate(-1.43 -0.53)" fill="#fff"/><rect x="86.88" y="6.87" width="3.18" height="14.99" fill="#fff"/><path d="M99.85,20.11a1.47,1.47,0,0,1-1-.32,1.22,1.22,0,0,1-.37-1V13.28h3.21V10.93H98.49V8.49h-2l-0.9,2.42-1.72,1v1.32h1.5v5.53a4.13,4.13,0,0,0,.86,2.85,3.52,3.52,0,0,0,2.73.95,7,7,0,0,0,2.87-.52V19.75A6.78,6.78,0,0,1,99.85,20.11Z" transform="translate(-1.43 -0.53)" fill="#fff"/><path d="M21.43,4.9a9.66,9.66,0,1,0,9.66,9.66A9.66,9.66,0,0,0,21.43,4.9Zm0,17.05h0c-2.44-1-7.79-4.9-7.8-8.87A3.9,3.9,0,0,1,21,11.3a0.48,0.48,0,0,0,.85,0,3.9,3.9,0,0,1,7.38,1.79C29.22,17,23.87,20.94,21.43,22Z" transform="translate(-1.43 -0.53)" fill="#fff"/><path d="M21.43,0.53A14,14,0,0,0,7.54,12.65H3.35a1.92,1.92,0,0,0-1.92,1.92h0a1.92,1.92,0,0,0,1.92,1.92h4.2A14,14,0,1,0,21.43.53Zm0,26.06a12,12,0,1,1,12-12A12,12,0,0,1,21.43,26.59Z" transform="translate(-1.43 -0.53)" fill="#fff"/></svg>