<svg xmlns="http://www.w3.org/2000/svg" width="14.48mm" height="15.33mm" viewBox="0 0 41.05 43.45">
    <defs>
        <clipPath id="clip-path">
            <path d="M28.52,4.92a15.17,15.17,0,0,0-4.17-.7C15.74,4.23,7.15,10,8.12,20c.65,6.76,4.69,6.28,4.69,11.89,0,3.3-3.08,4.76-3.84,5.08-.91.38-1.82.48-1.82,1.32,0,1.76,2.79,1.94,3.48,1.94,4.56,0,7.36-2.87,9.09-6.31a20.32,20.32,0,0,0,2.08-8.72,13.1,13.1,0,0,0-1.37-5.57,13.72,13.72,0,0,0,2.89-7.94A26.71,26.71,0,0,0,28.55,9.6Z"
                  style="fill:none"></path>
        </clipPath>
        <clipPath id="clip-path-2">
            <path d="M20,8.38A3.67,3.67,0,0,1,21.36,4.3c1.53-1.08,4-1.59,7.17-1.24.73.08,1.46.9,1.66.91s.21-.44.71-.47c5.53-.32,5.77,6.86,3.3,7.08a3.72,3.72,0,0,1-3.08-1.35.73.73,0,0,0-1.06,0,6.46,6.46,0,0,1-3.55,2C22.37,12.11,20.55,9.95,20,8.38Z"
                  style="fill:none"></path>
        </clipPath>
        <clipPath id="clip-path-3">
            <path d="M34.74,5.53c.87,1.13.93,2.8.3,3.32s-2.41.27-3.16-1.08-.85-2.88-.3-3.32C32.42,3.78,34,4.63,34.74,5.53Z"
                  style="fill:none"></path>
        </clipPath>
        <clipPath id="clip-path-4">
            <path d="M29.56,6.74c.06,1.69-2,3-4,3s-3.44-.92-3.73-2.58C21.45,5.1,23,4.19,25.43,4,29.14,3.65,29.5,5.05,29.56,6.74Z"
                  style="fill:none"></path>
        </clipPath>
    </defs>
    <title>logo-nav-sidebar</title>
    <g id="Layer_2" data-name="Layer 2">
        <g id="logo-nav-sidebar">
            <path id="outline"
                  d="M40.93,16.69a4.86,4.86,0,0,0-2.6-3.6l-.06,0L38.12,13a3.19,3.19,0,0,0-.42-.7l-.13-.17a6.7,6.7,0,0,0,1-4.11C38.44,4.31,35.84.58,31.22.58l-.52,0-.3,0A4.5,4.5,0,0,0,28.86.14,19.32,19.32,0,0,0,26.59,0a12.4,12.4,0,0,0-5.92,1.36,19.94,19.94,0,0,0-11.6,6A16.22,16.22,0,0,0,4.87,18.49a6.46,6.46,0,0,1-3.38,2,2,2,0,0,0-.06,3.85,7.73,7.73,0,0,0,1.07.21,12.42,12.42,0,0,0-.9,5.63,2,2,0,0,0,.08.45A2,2,0,0,0,1.21,34a11.19,11.19,0,0,0,3.57,1.87A3.84,3.84,0,0,0,4,38.32c0,3.07,2.68,5.13,6.67,5.13a12.27,12.27,0,0,0,9.94-4.94h0l.85,0c4.58,0,11.12-2.2,14.63-7a13.57,13.57,0,0,0,1.72-3.22A14.24,14.24,0,0,0,38.63,25a6.59,6.59,0,0,0,.75-1,11.62,11.62,0,0,0,1.17-2.54A10.68,10.68,0,0,0,41,19.62a10.5,10.5,0,0,0,.09-1.45A10.65,10.65,0,0,0,40.93,16.69ZM35.63,8.9h0ZM26.56,3h0Zm-1.62.1.13,0-.17,0Zm.19,33-.51.11Zm-.93.19-.5.08ZM27,35.54l-.5.17Zm-.93.3-.51.14Zm5.33-2.54-.45.31Zm-.83.55-.47.28Zm-.86.5-.48.25Zm-.89.45-.49.23Zm-.91.4-.5.2ZM9.44,28.83a2.13,2.13,0,0,0,0-.22A2.09,2.09,0,0,1,9.44,28.83Zm-2.19,0c.13,0,.18,0,.18,0a.46.46,0,0,1-.07.33,2.5,2.5,0,0,1-1.73,1.16c.21-.51.75-1.52,1.61-1.53Zm.19,3-.29.14Zm1.28-1c-.06.07-.12.13-.18.19S8.66,30.8,8.72,30.73Zm-.58.57-.25.18Zm-.57-4.47a2.53,2.53,0,0,1,.27,0A2.54,2.54,0,0,0,7.57,26.83Zm.56.14a2.22,2.22,0,0,1,.23.09A2.22,2.22,0,0,0,8.13,27Zm.48.27a2.06,2.06,0,0,1,.19.14A2.07,2.07,0,0,0,8.61,27.24Zm.38.37a2,2,0,0,1,.14.18A2,2,0,0,0,9,27.61Zm.41,1.61c0,.07,0,.13,0,.2S9.4,29.29,9.4,29.22Zm-.14-1.14a2,2,0,0,1,.09.2A2,2,0,0,0,9.27,28.08ZM4,22.68H4Zm.79,0,.28,0Zm-1.63,0,.52,0Zm2.52,9.71-.22,0Zm.94-.25-.3.1Zm-2.29.42h0Zm-2-10,.32.05ZM2,22.45H2Zm.1,0,.21,0Zm1.05.17-.42,0Zm.5,9.9c-.38,0-.75,0-1.12-.05C2.89,32.52,3.27,32.54,3.65,32.54Zm17.08,4,.8,0h-.07Zm2.57-.1-.5.05Zm-.89.09-.5,0ZM31.74,33l.44-.35Zm.76-.61.43-.4Zm.71-.66c.15-.15.3-.31.44-.47C33.52,31.46,33.37,31.62,33.22,31.77Zm.66-.71c.21-.24.41-.49.6-.75C34.29,30.57,34.09,30.82,33.88,31.07Z"></path>
            <g id="logo">
                <path d="M28.52,4.92a15.17,15.17,0,0,0-4.17-.7C15.74,4.23,7.15,10,8.12,20c.65,6.76,4.69,6.28,4.69,11.89,0,3.3-3.08,4.76-3.84,5.08-.91.38-1.82.48-1.82,1.32,0,1.76,2.79,1.94,3.48,1.94,4.56,0,7.36-2.87,9.09-6.31a20.32,20.32,0,0,0,2.08-8.72,13.1,13.1,0,0,0-1.37-5.57,13.72,13.72,0,0,0,2.89-7.94A26.71,26.71,0,0,0,28.55,9.6Z"
                      style="fill:#8c3217"></path>
                <path d="M24.35,4.23a15.17,15.17,0,0,1,4.17.7l0,4.67a26.71,26.71,0,0,1-5.23,2.12,13.72,13.72,0,0,1-2.89,7.94,13.1,13.1,0,0,1,1.37,5.57,20.32,20.32,0,0,1-2.08,8.72c-1.73,3.44-4.53,6.31-9.09,6.31-.68,0-3.48-.18-3.48-1.94,0-.84.91-.94,1.82-1.32.76-.31,3.84-1.78,3.84-5.08,0-5.61-4-5.13-4.69-11.89C7.15,10,15.74,4.23,24.35,4.23m0-1.19A18.76,18.76,0,0,0,10.56,8.72,14.47,14.47,0,0,0,6.94,20.15a12.2,12.2,0,0,0,2.87,7,6.7,6.7,0,0,1,1.81,4.73c0,2.5-2.37,3.68-3.1,4L8,36.09c-.77.27-2.06.72-2.06,2.24,0,2.31,2.51,3.13,4.67,3.13,4.35,0,7.86-2.41,10.15-7A21.64,21.64,0,0,0,23,25.23a13.44,13.44,0,0,0-1.2-5.41,15.35,15.35,0,0,0,2.68-7.15,35.23,35.23,0,0,0,4.63-2l.65-.34V9.59l0-4.67V4l-.86-.25A16.48,16.48,0,0,0,24.35,3Z"
                      style="fill:#4a2114"></path>
                <path d="M20,8.71a3.93,3.93,0,0,1,1.32-4.33c1.52-1.15,4-1.68,7.15-1.31.73.09,1.46,1,1.65,1s.21-.47.71-.5c5.51-.33,5.76,7.29,3.3,7.52a3.4,3.4,0,0,1-2.8-1.15,1.1,1.1,0,0,0-1.57,0,6.45,6.45,0,0,1-3.29,1.79C22.38,12.66,20.58,10.15,20,8.71Z"
                      style="fill:#4a2114"></path>
                <path d="M26.59,3a16.29,16.29,0,0,1,1.91.12c.73.09,1.46,1,1.65,1h0c.18,0,.21-.47.7-.5h.35c5.18,0,5.36,7.3,3,7.53h-.31a3.49,3.49,0,0,1-2.49-1.17,1.1,1.1,0,0,0-1.57,0,6.45,6.45,0,0,1-3.29,1.79,7.72,7.72,0,0,1-1.72.21A4.91,4.91,0,0,1,20,8.71a3.93,3.93,0,0,1,1.32-4.33A8.69,8.69,0,0,1,26.59,3m0-1a9.62,9.62,0,0,0-5.81,1.62A4.88,4.88,0,0,0,19.15,9a5.87,5.87,0,0,0,5.64,3.84,8.71,8.71,0,0,0,1.93-.23,7.43,7.43,0,0,0,3.77-2.06.15.15,0,0,1,.22,0A4.43,4.43,0,0,0,33.86,12l.4,0c1.48-.14,2.45-1.75,2.35-3.92-.12-2.65-1.86-5.51-5.39-5.51h-.4a1.53,1.53,0,0,0-.72.22,3.09,3.09,0,0,0-1.47-.69,17.31,17.31,0,0,0-2-.12Z"
                      style="fill:#4a2114"></path>
                <path d="M34.64,15.68A4.61,4.61,0,0,0,33,13.4a14.33,14.33,0,0,0-3.35-2.85,14.06,14.06,0,0,0-19.33,4.67,1,1,0,0,0,.39,1.66,9.79,9.79,0,0,0-.78,2.26L8.51,14.37S8.41,20.78,2,22.45a9.05,9.05,0,0,0,4.09,0,10.66,10.66,0,0,0-2.49,7.62s.91-3.24,3.61-3.28A2.14,2.14,0,0,1,9.17,30c-1.06,2.2-4,2.71-6.65,2.45,0,0,4,3.54,14.49,2.34.36.39.7.65,1,.64a17.47,17.47,0,0,0,6.8-1.71,7.14,7.14,0,0,1-4.07,2.76c4.51.27,10.68-2,13.75-6.2S37.29,20.2,34.64,15.68Z"
                      style="fill:#4a2114"></path>
                <path d="M30.22,31.27A6.5,6.5,0,0,1,26,33.67a3.39,3.39,0,0,0,1.66-2.15A4.22,4.22,0,0,0,30.22,31.27ZM25.13,30a6,6,0,0,1-2.9.82,3.69,3.69,0,0,0,1.53-2.34l.13.14a9.79,9.79,0,0,1-1.56-3.9c-1.69,2.73-1,8.18-9.3,8.61,7.28,2.17,13.51-2.38,13.51-2.38A6.72,6.72,0,0,1,25.13,30Zm-13.27,1.2S10.64,33,7.2,33.25c0,0,3.38,1,5.56.13l.59-2.29ZM8.94,21.7s-2.73,1.84-3.41,4.17A3.69,3.69,0,0,1,10,24.82Z"
                      style="fill:#8c3217"></path>
                <path d="M39,17a2.86,2.86,0,0,0-1.57-2.14,5.83,5.83,0,0,0-1-.36,1.19,1.19,0,0,0-.23-1l-1.85-2.35L33,9.15a1.19,1.19,0,0,0-1-.55h-.09c-.29,0-7.18.54-10.23,1.78a1.19,1.19,0,0,0-.53.43c-1.33,1.93-2.09,7.44-1,9.09s1.41,2,1.56,2.11a11.14,11.14,0,0,0,1.8,1.05c.34.17.67.33,1,.51.75.44,1.18.9,1.2,1.26a.49.49,0,0,1-.13.37.42.42,0,0,1-.31.13.8.8,0,0,1-.23,0c-.11-.1-.27-.26-.35-.35a1.19,1.19,0,0,0-1.07-.66H23.5a1.19,1.19,0,0,0-1.1,1.27,5.39,5.39,0,0,0,1.52,3.19,3,3,0,0,0,.61.41,1.19,1.19,0,0,0,.22.93,5,5,0,0,0,4.16,1.75,4.47,4.47,0,0,0,1.32-.21,1.19,1.19,0,0,0,.54.13l.22,0a6.32,6.32,0,0,0,2.25-.91,7.39,7.39,0,0,0,2.4-2.62,10.81,10.81,0,0,0,1-3.68,2.37,2.37,0,0,1,.06-.36,2.23,2.23,0,0,1,.35-.45,5,5,0,0,0,.58-.74,9.61,9.61,0,0,0,1-2.11A8.68,8.68,0,0,0,39,19.36a8.5,8.5,0,0,0,.07-1.17A8.65,8.65,0,0,0,39,17ZM26.43,26l-.12.1Zm.42-.88a1.68,1.68,0,0,1-.07.25A1.68,1.68,0,0,0,26.85,25.13Zm-.08.32a1.66,1.66,0,0,1-.08.17A1.67,1.67,0,0,0,26.77,25.46Zm-.14.29-.09.12Zm-.1,2.48h0Zm-.57.05h0Zm.23-2.06-.15.08Zm-.28.16-.15,0Zm-.32.1-.15,0Zm.12,1.78-.13,0Zm-.31-.06-.12,0Zm-.31-.12L25,28Z"
                      style="fill:#4a2114"></path>
                <path d="M37.86,18.2a7.42,7.42,0,0,0-.08-1,1.68,1.68,0,0,0-1-1.27A11.11,11.11,0,0,0,35,15.38l.24-1.12L33.3,11.86,32,9.79s-7,.51-9.87,1.69C20.93,13.19,19.72,18,19.72,18S21,19.16,21.3,19.36a6.31,6.31,0,0,0,3.79,3.19,2.7,2.7,0,0,1,1.78,2.24,1.64,1.64,0,0,1-1.64,1.73,2.07,2.07,0,0,1-.82-.18c-.11,0-.61-.25-.62-.4a2.82,2.82,0,0,0,.9,1.9,2.45,2.45,0,0,0,2.28.3.55.55,0,0,1,0,.3,1.4,1.4,0,0,1-1.24.93,4,4,0,0,0,3.21,1.28,4.17,4.17,0,0,0,2-.63,2.6,2.6,0,0,0,.78-.7.51.51,0,0,1-.1.38,1.65,1.65,0,0,1-.82.86,5.09,5.09,0,0,0,1.82-.74,6.21,6.21,0,0,0,2-2.18,9.72,9.72,0,0,0,.9-3.28,2.64,2.64,0,0,1,.14-.65c.22-.52.72-.88,1-1.36a8.4,8.4,0,0,0,.85-1.84,7.46,7.46,0,0,0,.29-1.3A7.26,7.26,0,0,0,37.86,18.2Z"
                      style="fill:#ebb33c"></path>
                <path d="M34.59,24.12c-.66.12-2.13,1-2.92,1.1a4.26,4.26,0,0,1-3.29-.41,3.22,3.22,0,0,1-1.28-1.7l3.07,1.5,3.93-1.53,2.3-1.43-.27-3.1s-3-1.43-3.55-1.32c.28,1.88,3,1.6,3,2.95,0,.73-.75,1.16-1.39,1.53a15.52,15.52,0,0,1-3.43,1.45c-2,.31-1.95-1.66-3.63-3.07C25.78,19,24,19.22,22.86,18.78a14.76,14.76,0,0,0,1.8-5.23,11.13,11.13,0,0,0,3.72-.76C30,12,30,11.36,30.66,11.36s1.11,1,3.11,1.09l-.46-.59-.91-1.42-1.18-.58c-.86.08-2.34.23-3.93.46l-4.05,1-2.58,6.85.26.15,0,.08c0,.19,0,.36,0,.53l.38.3s.6,2.21,3.78,3.28a2.67,2.67,0,0,1,1.78,2.24,1.64,1.64,0,0,1-1.64,1.73,1.93,1.93,0,0,1-.42,0,2.23,2.23,0,0,1-.4-.13l-.14-.06c-.19-.08-.47-.23-.48-.34a2.82,2.82,0,0,0,.9,1.9,2.45,2.45,0,0,0,2.28.3.55.55,0,0,1,0,.3,1.4,1.4,0,0,1-1.24.93A3.46,3.46,0,0,0,28,30.59a6.06,6.06,0,0,0,.9.07A3.37,3.37,0,0,0,30,30.46a5.07,5.07,0,0,0,.94-.43,2.6,2.6,0,0,0,.78-.7.51.51,0,0,1-.1.38,1.94,1.94,0,0,1-.18.33l-.08.09-.13.15-.11.09-.1.08-.13.08-.06,0h0a4.7,4.7,0,0,0,.8-.24C33.1,29.68,34.5,27.77,34.59,24.12Z"
                      style="fill:#d19a2a"></path>
                <g id="highlight">
                    <path d="M27,30.31a5.22,5.22,0,0,0,1.93.34,4.43,4.43,0,0,0,2.79-1.22,5.73,5.73,0,0,0,1-2.24A6.28,6.28,0,0,1,27,30.31Z"
                          style="fill:#ebb33c"></path>
                </g>
                <path id="Eye"
                      d="M28.66,14a1.94,1.94,0,0,1,1.16,1.4,3.74,3.74,0,0,0-2-.17A1.69,1.69,0,0,1,26,14.1C25.87,13.89,27.82,13.77,28.66,14Z"
                      style="fill:#4a2114"></path>
                <path id="eye-2" data-name="eye" d="M35.19,14.26s-1.53-.5-1.78.74l1.68.41Z" style="fill:#4a2114"></path>
                <path id="nose_mouth" data-name="nose/mouth"
                      d="M36.76,21.45a2.42,2.42,0,0,1,0-.92,3.57,3.57,0,0,1,.73-1.45,2,2,0,0,0,0-2.57s.36.61-1.14.63a14.17,14.17,0,0,1-1.54,0,16.71,16.71,0,0,1-2.2-.38c-.14,0-.12.12-.11.21a1.51,1.51,0,0,0,.1.45,1.48,1.48,0,0,0,.36.54c.5.5,1.78.71,2.23,1a1.85,1.85,0,0,1,.91,1.15,1.43,1.43,0,0,1-.25,1.15c-.94.88-4,2.95-6,2.95A2.47,2.47,0,0,1,28,22.89c-.09-.15-.14-.33-.3-.42a.44.44,0,0,0-.66.36.84.84,0,0,0,.18.45,4,4,0,0,0,.75.9,3,3,0,0,0,2.19.75c1.78,0,4-1.58,4.73-2,.39-.24,1.32-1,1.62-.66.13.12-.26.61-.35.74a2.77,2.77,0,0,0,.6-.77A1.22,1.22,0,0,0,36.76,21.45Z"
                      style="fill:#4a2114"></path>
                <path d="M28.52,4.92a15.17,15.17,0,0,0-4.17-.7C15.74,4.23,7.15,10,8.12,20c.65,6.76,4.69,6.28,4.69,11.89,0,3.3-3.08,4.76-3.84,5.08-.91.38-1.82.48-1.82,1.32,0,1.76,2.79,1.94,3.48,1.94,4.56,0,7.36-2.87,9.09-6.31a20.32,20.32,0,0,0,2.08-8.72,13.1,13.1,0,0,0-1.37-5.57,13.72,13.72,0,0,0,2.89-7.94A26.71,26.71,0,0,0,28.55,9.6Z"
                      style="fill:#8c3217"></path>
                <path d="M24.35,4.23a15.17,15.17,0,0,1,4.17.7l0,4.67a26.71,26.71,0,0,1-5.23,2.12,13.72,13.72,0,0,1-2.89,7.94,13.1,13.1,0,0,1,1.37,5.57,20.32,20.32,0,0,1-2.08,8.72c-1.73,3.44-4.53,6.31-9.09,6.31-.68,0-3.48-.18-3.48-1.94,0-.84.91-.94,1.82-1.32.76-.31,3.84-1.78,3.84-5.08,0-5.61-4-5.13-4.69-11.89C7.15,10,15.74,4.23,24.35,4.23m0-1A18.52,18.52,0,0,0,10.74,8.88,14.24,14.24,0,0,0,7.17,20.13,11.85,11.85,0,0,0,10,27.05a6.89,6.89,0,0,1,1.86,4.88c0,2.65-2.49,3.88-3.25,4.2l-.51.19c-.76.27-1.9.67-1.9,2,0,2.13,2.39,2.89,4.43,2.89,4.32,0,7.66-2.3,9.94-6.84a21.39,21.39,0,0,0,2.18-9.15,13.37,13.37,0,0,0-1.23-5.44,15,15,0,0,0,2.73-7.3,33.73,33.73,0,0,0,4.75-2l.52-.27V9.59l0-4.67V4.2L28.78,4a16.25,16.25,0,0,0-4.43-.73Z"
                      style="fill:#4a2114"></path>
                <g style="clip-path:url(#clip-path)">
                    <path d="M10.62,40.26A9.12,9.12,0,0,0,18,36.68a4.15,4.15,0,0,0-1.44-2.89,4.39,4.39,0,0,0-3.86-.7A6.21,6.21,0,0,1,9,37c-.91.38-1.82.48-1.82,1.32C7.15,40.08,9.94,40.26,10.62,40.26Z"
                          style="fill:#b04423"></path>
                    <path d="M20.42,19.66a13.72,13.72,0,0,0,2.89-7.94A10.35,10.35,0,0,0,25.52,11c-.6-3-2-5.51-4.32-6.52-6.25,1-11.85,5.07-13,11.61,0,4.77,3,8.83,7.25,9.48a8.09,8.09,0,0,0,6.21-1.72A14.89,14.89,0,0,0,20.42,19.66Z"
                          style="fill:#b04423"></path>
                    <g id="shadow">
                        <path d="M21.48,8.7A20.56,20.56,0,0,0,9,21.41L10,25A20.68,20.68,0,0,1,21.1,12.5a5.63,5.63,0,0,0,2.44,1L23.77,12Z"
                              style="fill:#8c3217"></path>
                    </g>
                    <g id="stitches">
                        <path d="M18.9,4.83a.3.3,0,0,1-.15-.55L19.17,4a.3.3,0,1,1,.29.52l-.4.24A.3.3,0,0,1,18.9,4.83Z"
                              style="fill:#4a2114"></path>
                        <path d="M10.14,39.09a.3.3,0,0,1-.08-.58q.45-.13.87-.29a.3.3,0,1,1,.21.56c-.29.11-.6.21-.91.3Zm2.17-.88a.3.3,0,0,1-.14-.56,7.48,7.48,0,0,0,.76-.48.3.3,0,1,1,.35.48,8,8,0,0,1-.82.52A.3.3,0,0,1,12.31,38.21Zm1.84-1.44a.3.3,0,0,1-.22-.5,6.36,6.36,0,0,0,.55-.7.3.3,0,1,1,.49.33,6.88,6.88,0,0,1-.61.77A.3.3,0,0,1,14.15,36.77Zm1.25-2-.12,0a.3.3,0,0,1-.16-.39,8.26,8.26,0,0,0,.3-.85.3.3,0,1,1,.57.17,8.74,8.74,0,0,1-.33.92A.3.3,0,0,1,15.4,34.79ZM16,32.53h0a.3.3,0,0,1-.25-.34c0-.29.08-.6.11-.91a.3.3,0,1,1,.59,0q0,.5-.11,1A.3.3,0,0,1,16,32.53Zm.16-2.34a.3.3,0,0,1-.3-.3c0-.32,0-.63,0-.91a.3.3,0,0,1,.59-.05c0,.3,0,.62,0,1a.3.3,0,0,1-.29.3Zm-.27-2.32a.3.3,0,0,1-.29-.23,8.18,8.18,0,0,0-.26-.87.3.3,0,1,1,.56-.21,8.68,8.68,0,0,1,.28.93.3.3,0,0,1-.22.36Zm-.84-2.18a.3.3,0,0,1-.27-.16l-.39-.74,0-.08a.3.3,0,1,1,.53-.28l0,.08.39.76a.3.3,0,0,1-.27.43ZM14,23.59a.3.3,0,0,1-.27-.17c-.13-.28-.25-.57-.37-.89a.3.3,0,1,1,.56-.21c.11.3.23.58.36.85a.3.3,0,0,1-.15.4Zm-.79-2.21a.3.3,0,0,1-.29-.22c-.08-.3-.14-.61-.2-.94a.3.3,0,1,1,.59-.11c.06.32.12.61.19.9a.3.3,0,0,1-.21.36Zm-.39-2.31a.3.3,0,0,1-.3-.27c0-.3,0-.62-.07-.95a.3.3,0,0,1,.6,0c0,.32,0,.63.06.92a.3.3,0,0,1-.27.32Zm-.09-2.35h0a.3.3,0,0,1-.29-.3q0-.49,0-1a.31.31,0,0,1,.31-.28.3.3,0,0,1,.28.31q0,.45,0,.93A.3.3,0,0,1,12.73,16.72Zm.14-2.34h0a.3.3,0,0,1-.26-.33q.06-.49.14-.95a.29.29,0,0,1,.34-.24.3.3,0,0,1,.24.34q-.08.45-.13.92A.3.3,0,0,1,12.87,14.38Zm.44-2.31h-.08A.3.3,0,0,1,13,11.7q.13-.47.28-.92a.3.3,0,1,1,.56.19q-.15.43-.27.88A.3.3,0,0,1,13.31,12.07Zm.81-2.2a.3.3,0,0,1-.27-.43q.21-.44.46-.85a.3.3,0,1,1,.51.3q-.23.39-.43.81A.3.3,0,0,1,14.12,9.87Zm1.24-2a.29.29,0,0,1-.18-.06.3.3,0,0,1-.05-.42c.2-.25.41-.5.63-.73a.3.3,0,1,1,.44.41q-.31.33-.59.7A.3.3,0,0,1,15.36,7.88ZM17,6.19a.3.3,0,0,1-.19-.53q.36-.31.75-.59a.3.3,0,1,1,.35.48q-.37.28-.72.57A.3.3,0,0,1,17,6.19Z"
                              style="fill:#4a2114"></path>
                        <path d="M8.22,39.51a.3.3,0,0,1,0-.59l.46-.08a.3.3,0,1,1,.11.58l-.48.08Z"
                              style="fill:#4a2114"></path>
                    </g>
                    <g id="stitches-2" data-name="stitches">
                        <path d="M18.55,4.83a.3.3,0,0,1-.15-.55L18.81,4a.3.3,0,1,1,.29.52l-.4.24A.3.3,0,0,1,18.55,4.83Z"
                              style="fill:#e4b889"></path>
                        <path d="M9.78,39.09a.3.3,0,0,1-.08-.58q.45-.13.87-.29a.3.3,0,1,1,.21.56c-.29.11-.6.21-.91.3ZM12,38.21a.3.3,0,0,1-.14-.56,7.48,7.48,0,0,0,.76-.48.3.3,0,1,1,.35.48,8,8,0,0,1-.82.52A.3.3,0,0,1,12,38.21Zm1.84-1.44a.3.3,0,0,1-.22-.5,6.36,6.36,0,0,0,.55-.7.3.3,0,1,1,.49.33,6.88,6.88,0,0,1-.61.77A.3.3,0,0,1,13.79,36.77Zm1.25-2-.12,0a.3.3,0,0,1-.16-.39,8.26,8.26,0,0,0,.3-.85.3.3,0,1,1,.57.17,8.74,8.74,0,0,1-.33.92A.3.3,0,0,1,15,34.79Zm.62-2.26h0a.3.3,0,0,1-.25-.34c0-.29.08-.6.11-.91a.3.3,0,1,1,.59,0q0,.5-.11,1A.3.3,0,0,1,15.66,32.53Zm.16-2.34a.3.3,0,0,1-.3-.3c0-.32,0-.63,0-.91a.3.3,0,0,1,.59-.05c0,.3,0,.62,0,1a.3.3,0,0,1-.29.3Zm-.27-2.32a.3.3,0,0,1-.29-.23,8.18,8.18,0,0,0-.26-.87.3.3,0,1,1,.56-.21,8.68,8.68,0,0,1,.28.93.3.3,0,0,1-.22.36Zm-.84-2.18a.3.3,0,0,1-.27-.16L14,24.77l0-.08a.3.3,0,1,1,.53-.28l0,.08.39.76a.3.3,0,0,1-.27.43Zm-1.07-2.09a.3.3,0,0,1-.27-.17c-.13-.28-.25-.57-.37-.89a.3.3,0,1,1,.56-.21c.11.3.23.58.36.85a.3.3,0,0,1-.15.4Zm-.79-2.21a.3.3,0,0,1-.29-.22c-.08-.3-.14-.61-.2-.94a.3.3,0,1,1,.59-.11c.06.32.12.61.19.9a.3.3,0,0,1-.21.36Zm-.39-2.31a.3.3,0,0,1-.3-.27c0-.3,0-.62-.07-.95a.3.3,0,0,1,.6,0c0,.32,0,.63.06.92a.3.3,0,0,1-.27.32Zm-.09-2.35h0a.3.3,0,0,1-.29-.3q0-.49,0-1a.31.31,0,0,1,.31-.28.3.3,0,0,1,.28.31q0,.45,0,.93A.3.3,0,0,1,12.37,16.72Zm.14-2.34h0a.3.3,0,0,1-.26-.33q.06-.49.14-.95a.29.29,0,0,1,.34-.24.3.3,0,0,1,.24.34q-.08.45-.13.92A.3.3,0,0,1,12.51,14.38ZM13,12.07h-.08a.3.3,0,0,1-.21-.37q.13-.47.28-.92a.3.3,0,1,1,.56.19q-.15.43-.27.88A.3.3,0,0,1,13,12.07Zm.81-2.2a.3.3,0,0,1-.27-.43q.21-.44.46-.85a.3.3,0,1,1,.51.3q-.23.39-.43.81A.3.3,0,0,1,13.76,9.87Zm1.24-2a.29.29,0,0,1-.18-.06.3.3,0,0,1-.05-.42c.2-.25.41-.5.63-.73a.3.3,0,0,1,.44.41q-.31.33-.59.7A.3.3,0,0,1,15,7.88Zm1.63-1.69a.3.3,0,0,1-.19-.53q.36-.31.75-.59a.3.3,0,1,1,.35.48q-.37.28-.72.57A.3.3,0,0,1,16.63,6.19Z"
                              style="fill:#e4b889"></path>
                        <path d="M7.86,39.51a.3.3,0,0,1,0-.59l.46-.08a.3.3,0,0,1,.11.59l-.48.08Z"
                              style="fill:#e4b889"></path>
                    </g>
                    <path d="M20.41,7.75A20.56,20.56,0,0,0,7.92,20.46L9,24a20.46,20.46,0,0,1,12.68-13.1Z"
                          style="fill:#e4b889"></path>
                    <path d="M7.8,20l1.1,4.47,1.35-3.28A7.43,7.43,0,0,1,9,17.63Z" style="fill:#ca8e58"></path>
                </g>
                <path d="M9.26,24.62l-.91-.3.15-.45a21.13,21.13,0,0,1,13-13.41l.46-.13.26.92-.46.13A20.16,20.16,0,0,0,9.41,24.17Z"
                      style="fill:#4a2114"></path>
                <path d="M8,20.9l-.69-.2.1-.34A21.49,21.49,0,0,1,20.29,7.42l.33-.12.25.67-.34.12A20.76,20.76,0,0,0,8.15,20.56Z"
                      style="fill:#4a2114"></path>
                <path d="M31.22,2.82h-.39a1.28,1.28,0,0,0-.74.28,3.1,3.1,0,0,0-1.5-.75,17.07,17.07,0,0,0-2-.12,9.39,9.39,0,0,0-5.66,1.57A4.64,4.64,0,0,0,19.37,9a5.64,5.64,0,0,0,5.42,3.68,8.48,8.48,0,0,0,1.87-.22,7.19,7.19,0,0,0,3.65-2,.39.39,0,0,1,.55,0,4.2,4.2,0,0,0,3,1.38l.38,0c1.35-.13,2.23-1.63,2.13-3.67C36.25,5.56,34.59,2.82,31.22,2.82Z"
                      style="fill:#4a2114"></path>
                <path d="M20,8.38A3.67,3.67,0,0,1,21.36,4.3c1.53-1.08,4-1.59,7.17-1.24.73.08,1.46.9,1.66.91s.21-.44.71-.47c5.53-.32,5.77,6.86,3.3,7.08a3.72,3.72,0,0,1-3.08-1.35.73.73,0,0,0-1.06,0,6.46,6.46,0,0,1-3.55,2C22.37,12.11,20.55,9.95,20,8.38Z"
                      style="fill:#e4b889"></path>
                <g style="clip-path:url(#clip-path-2)">
                    <path d="M31,8.13a.36.36,0,0,0-.62,0c-.61,1.1-2.22,2.63-5.28,2.74-1.14,0-5.18-.29-5.18-4.36L18.68,11l8.65,1.46,6.23-1,2.28-1,0-3S36.1,10,34,10A3.63,3.63,0,0,1,31,8.13Z"
                          style="fill:#ca8e58"></path>
                </g>
                <path d="M29.56,6.74c.06,1.69-2,3-4,3s-3.44-.92-3.73-2.58C21.45,5.1,23,4.19,25.43,4,29.14,3.65,29.5,5.05,29.56,6.74Z"
                      style="fill:#62bfe6"></path>
                <path d="M26.43,3.93c2.78,0,3.08,1.28,3.13,2.81.06,1.69-2,3-4,3h-.2c-1.94,0-3.25-1-3.53-2.59C21.45,5.1,23,4.19,25.43,4c.36,0,.7,0,1,0m0-.48h0c-.32,0-.67,0-1,0-1.77.15-2.94.63-3.58,1.47a2.83,2.83,0,0,0-.46,2.3c.32,1.84,1.85,3,4,3h.22a5.71,5.71,0,0,0,3.06-1A3,3,0,0,0,30,6.72c-.05-1.58-.38-3.27-3.61-3.27Z"
                      style="fill:#4a2114"></path>
                <path d="M34.74,5.53c.87,1.13.93,2.8.3,3.32s-2.41.27-3.16-1.08-.85-2.88-.3-3.32C32.42,3.78,34,4.63,34.74,5.53Z"
                      style="fill:#62bfe6"></path>
                <path d="M32.34,4.21a3.5,3.5,0,0,1,2.4,1.32c.88,1.13.93,2.8.3,3.32a1.45,1.45,0,0,1-.94.31,2.63,2.63,0,0,1-2.21-1.39c-.71-1.27-.85-2.88-.3-3.32a1.18,1.18,0,0,1,.76-.24m0-.48h0a1.64,1.64,0,0,0-1.05.35c-.83.66-.57,2.57.19,3.92A3.1,3.1,0,0,0,34.1,9.64a1.91,1.91,0,0,0,1.25-.42c.87-.73.75-2.7-.23-4a4,4,0,0,0-2.78-1.51Z"
                      style="fill:#4a2114"></path>
                <g id="shine">
                    <g style="clip-path:url(#clip-path-3)">
                        <path d="M35.1,5.05c.87,1.13.93,2.8.3,3.32S33,8.62,32.24,7.3c-1-1.63-.85-2.88-.3-3.32C32.78,3.3,34.4,4.15,35.1,5.05Z"
                              style="fill:#bfe2f5"></path>
                    </g>
                </g>
                <g id="shine-2" data-name="shine">
                    <g style="clip-path:url(#clip-path-4)">
                        <ellipse cx="26.18" cy="6.19" rx="3.56" ry="2.78" style="fill:#bfe2f5"></ellipse>
                        <path d="M23.75,4.77s2.71-.67,4.18,0C29.26,5.29,29,7.22,29,7.22a2.88,2.88,0,0,0-1.5-2.08A12,12,0,0,0,23.75,4.77Z"
                              style="fill:#fff;opacity:0.85"></path>
                    </g>
                </g>
                <path d="M31.59,5a1.27,1.27,0,0,1,1.61-.22,3.57,3.57,0,0,1,1.79,2A5.2,5.2,0,0,0,33,5C31.92,4.7,31.59,5,31.59,5Z"
                      style="fill:#fff;opacity:0.85"></path>
                <path id="ear"
                      d="M19.89,12a9.52,9.52,0,0,1-2-.3c-1.87-.4-5.48,1.51-6,2.74s2.12,3.89,6.7,3.89c0,0,.84-2,1.39-3.55A4.39,4.39,0,0,0,19.89,12Z"
                      style="fill:#4a2114"></path>
                <path id="ear-2" data-name="ear"
                      d="M20.86,11.84a4.34,4.34,0,0,0-2.09-1.54c-1.21-.44-4.45-.65-5,.58s-.21,5.19,4.84,6.72a9,9,0,0,0,1.67-2.78A13.21,13.21,0,0,0,20.86,11.84Z"
                      style="fill:#ebb33c"></path>
                <path id="ear-3" data-name="ear"
                      d="M16.37,10a7.8,7.8,0,0,1,2.39.34,4.34,4.34,0,0,1,2.09,1.54,13.21,13.21,0,0,1-.59,3,9,9,0,0,1-1.67,2.78c-5-1.52-5.39-5.49-4.84-6.72.31-.68,1.45-.92,2.62-.92m0-.71c-1.21,0-2.77.23-3.27,1.34a4.82,4.82,0,0,0,.26,3.71,7.52,7.52,0,0,0,5,4,.71.71,0,0,0,.73-.2,9.66,9.66,0,0,0,1.82-3,13.85,13.85,0,0,0,.63-3.16.71.71,0,0,0-.11-.43A5.07,5.07,0,0,0,19,9.63a8.52,8.52,0,0,0-2.64-.39Z"
                      style="fill:#4a2114"></path>
                <g id="shadow-2" data-name="shadow">
                    <path d="M14.54,11.26A4.47,4.47,0,0,1,18,11c1.7.45,2,1.35,2,1.35a7,7,0,0,0-2.88-.62c-1.34,0-2.1.29-2.29,1.81A2.78,2.78,0,0,1,14.54,11.26Z"
                          style="fill:#cd9829"></path>
                </g>
            </g>
        </g>
    </g>
</svg>