<?xml version="1.0" encoding="iso-8859-1"?>
<!-- Generator: Adobe Illustrator 19.0.0, SVG Export Plug-In . SVG Version: 6.00 Build 0)  -->
<svg version="1.1" id="Capa_1" xmlns="http://www.w3.org/2000/svg" xmlns:xlink="http://www.w3.org/1999/xlink" x="0px" y="0px"
	 viewBox="0 0 511.999 511.999" style="enable-background:new 0 0 511.999 511.999;" xml:space="preserve">
<g>
	<g>
		<path d="M437.017,74.98C388.666,26.628,324.378,0,255.999,0S123.332,26.628,74.98,74.98S0,187.62,0,255.999
			s26.629,132.667,74.98,181.019c48.352,48.353,112.639,74.981,181.019,74.981s132.667-26.628,181.019-74.981
			c48.352-48.352,74.98-112.639,74.98-181.019S485.369,123.332,437.017,74.98z M255.999,491.999
			C125.869,491.999,20,386.13,20,255.999S125.869,20,255.999,20s235.999,105.869,235.999,235.999S386.128,491.999,255.999,491.999z"
			/>
	</g>
</g>
<g>
	<g>
		<path d="M262.789,48.119c-0.12-0.63-0.311-1.26-0.561-1.87c-0.25-0.6-0.56-1.18-0.92-1.72c-0.37-0.55-0.79-1.06-1.25-1.52
			c-0.46-0.46-0.97-0.88-1.52-1.25c-0.54-0.36-1.12-0.67-1.721-0.92c-0.609-0.25-1.239-0.44-1.869-0.57c-1.29-0.26-2.62-0.26-3.91,0
			c-0.641,0.13-1.27,0.32-1.87,0.57c-0.61,0.25-1.19,0.56-1.73,0.92c-0.55,0.37-1.06,0.79-1.52,1.25c-1.86,1.86-2.93,4.43-2.93,7.07
			c0,0.65,0.069,1.31,0.199,1.95c0.121,0.64,0.321,1.27,0.571,1.87c0.25,0.61,0.559,1.19,0.92,1.73c0.36,0.55,0.78,1.06,1.24,1.52
			c1.86,1.86,4.439,2.93,7.07,2.93c0.649,0,1.31-0.07,1.96-0.2c0.63-0.13,1.26-0.32,1.869-0.57c0.601-0.25,1.181-0.56,1.721-0.92
			c0.55-0.36,1.06-0.78,1.52-1.24c0.46-0.46,0.88-0.97,1.25-1.52c0.36-0.54,0.67-1.12,0.92-1.73c0.25-0.6,0.44-1.23,0.561-1.87
			c0.13-0.64,0.2-1.3,0.2-1.95C262.99,49.429,262.919,48.769,262.789,48.119z"/>
	</g>
</g>
<g>
	<g>
		<path d="M461.942,245.999c-5.522,0-10,4.477-10,10c0,108.044-87.9,195.943-195.943,195.943s-195.943-87.9-195.943-195.943
			c0-90.643,61.495-168.936,149.546-190.395c5.365-1.308,8.655-6.718,7.348-12.083c-1.308-5.365-6.709-8.655-12.084-7.348
			c-46.167,11.251-88.013,38.06-117.83,75.488c-30.735,38.581-46.98,85.034-46.98,134.338c0,119.072,96.872,215.943,215.943,215.943
			s215.943-96.872,215.943-215.943C471.942,250.477,467.464,245.999,461.942,245.999z"/>
	</g>
</g>
<g>
	<g>
		<path d="M434.387,256.055c0-23.837-12.654-45.491-33.023-57.785c7.695-16.289,8.281-35.356,1.167-52.011
			c-0.046-0.106-0.093-0.211-0.142-0.316c-12.022-25.648-35.028-39.97-62.47-39.365c-11.143-22.64-32.299-35.93-59.096-36.79
			c-0.107-0.004-0.214-0.005-0.321-0.005c-4.502,0-9.905,0.984-16.522,3.008c-11.188,3.427-19.771,11.972-23.487,22.51h-24.771
			c-4.647,0-8.68,3.2-9.737,7.724l-7.268,31.094c-6.39,2.074-12.609,4.651-18.591,7.703l-27.129-16.85
			c-3.945-2.449-9.061-1.861-12.348,1.424l-31.943,31.943c-3.285,3.286-3.875,8.401-1.424,12.348l16.851,27.128
			c-3.053,5.982-5.63,12.202-7.703,18.591l-31.096,7.268c-4.523,1.057-7.724,5.091-7.724,9.737v45.175c0,4.646,3.2,8.68,7.724,9.737
			l31.096,7.268c2.073,6.389,4.65,12.609,7.703,18.591l-16.851,27.128c-2.451,3.947-1.861,9.062,1.424,12.348l31.943,31.943
			c3.286,3.286,8.402,3.875,12.348,1.423l27.129-16.85c5.981,3.052,12.201,5.629,18.591,7.703l7.268,31.094
			c1.058,4.524,5.091,7.724,9.737,7.724h24.414c3.948,12.495,14.594,22.307,27.98,24.598c3.55,0.607,7.196,0.91,10.93,0.91
			c7.635,0,15.63-1.268,23.886-3.796c0.163-0.05,0.326-0.104,0.487-0.163c14.858-5.398,27.155-15.862,34.645-29.255
			c1.08,0.054,2.128,0.081,3.149,0.081c23.05,0,44.591-11.021,57.615-29.474c14.106-19.945,15.96-45.962,5.556-67.642
			C423.123,299.425,434.387,278.832,434.387,256.055z M238.488,320.318c-0.059,0-0.119,0.001-0.178,0.001
			c-1.662,0-3.311-0.063-4.942-0.188c-0.271-0.02-0.543-0.043-0.814-0.067c-1.083-0.097-2.16-0.22-3.227-0.37
			c-0.4-0.056-0.8-0.116-1.198-0.18c-1.061-0.169-2.114-0.365-3.158-0.586c-2.609-0.552-5.16-1.263-7.642-2.122
			c-0.124-0.043-0.248-0.086-0.372-0.13c-24.384-8.606-42.074-31.52-42.935-58.607c-0.013-0.413-0.022-0.826-0.028-1.24
			c-0.004-0.276-0.005-0.553-0.005-0.83c0-0.277,0.002-0.554,0.005-0.83c0.005-0.414,0.015-0.828,0.028-1.24
			c0.861-27.087,18.551-50.001,42.935-58.607c0.124-0.044,0.248-0.087,0.372-0.13c2.482-0.859,5.033-1.57,7.642-2.122
			c1.044-0.221,2.096-0.417,3.158-0.586c0.398-0.064,0.797-0.123,1.198-0.18c1.068-0.15,2.144-0.273,3.227-0.37
			c0.271-0.024,0.542-0.046,0.814-0.067c1.631-0.124,3.279-0.188,4.942-0.188c0.059,0,0.119,0.001,0.178,0.001V320.318z
			 M238.488,171.679h-0.178c-46.494,0-84.32,37.826-84.32,84.32c0,46.494,37.826,84.32,84.32,84.32h0.178v56.378h-14.833
			l-6.782-29.013c-0.835-3.575-3.563-6.405-7.104-7.371c-8.744-2.387-17.166-5.876-25.031-10.372
			c-3.187-1.823-7.118-1.751-10.238,0.187l-25.315,15.723l-20.726-20.725l15.725-25.316c1.938-3.12,2.009-7.051,0.187-10.239
			c-4.496-7.865-7.985-16.287-10.371-25.03c-0.967-3.542-3.796-6.269-7.371-7.105l-29.016-6.781v-29.311l29.016-6.781
			c3.575-0.836,6.404-3.564,7.371-7.106c2.386-8.744,5.875-17.165,10.371-25.03c1.822-3.188,1.751-7.119-0.187-10.239
			l-15.725-25.315l20.726-20.725l25.315,15.723c3.122,1.938,7.052,2.009,10.238,0.187c7.865-4.496,16.287-7.985,25.031-10.372
			c3.542-0.966,6.27-3.796,7.104-7.371l6.782-29.014h14.833V171.679z M391.63,296.375c-12.39-7.503-28.766-5.928-39.435,4.742
			c-6.087,6.087-9.439,14.181-9.439,22.789c0,8.608,3.353,16.702,9.439,22.789c1.953,1.953,4.512,2.929,7.071,2.929
			c2.559,0,5.119-0.977,7.071-2.929c3.905-3.905,3.905-10.237,0-14.142c-2.31-2.309-3.582-5.38-3.582-8.646s1.272-6.337,3.582-8.646
			c4.559-4.559,11.884-4.715,16.68-0.489c10.835,16.179,10.664,37.467-0.524,53.287c-9.288,13.159-24.721,21.015-41.281,21.015
			c-0.122,0-0.246-0.001-0.37-0.002c-4.145-15.001-18.061-26.06-34.541-26.06c-5.522,0-10,4.477-10,10s4.478,10,10,10
			c8.075,0,14.753,5.921,15.687,13.534c-4.928,10.567-13.786,18.618-25.163,22.817c-9.183,2.778-17.705,3.525-25.337,2.219
			c-7.151-1.223-12.52-7.375-12.977-14.602c0.005-0.187,0.006-0.374,0.001-0.562l-0.016-0.458c-0.005-0.126-0.011-0.251-0.012-0.377
			c0.002-0.081,0.003-0.162,0.003-0.243V107.742c0-0.091-0.001-0.182-0.004-0.273c0-0.005,0-0.01,0-0.015
			c-0.002-0.063-0.002-0.126-0.003-0.19c-0.003-0.378,0.012-0.801,0.044-1.285c0.007-0.097,0.011-0.193,0.015-0.29
			c0.565-6.328,5.005-11.845,11.293-13.769c5.871-1.796,9.079-2.114,10.531-2.132c21.134,0.738,36.692,11.656,43.819,30.757
			c1.613,4.321,5.972,6.984,10.55,6.435c22.036-2.62,40.042,7.328,49.472,27.296c4.593,10.876,4.377,23.263-0.293,34.071
			c-11.669-4.787-25.599-2.45-35.062,7.012c-12.565,12.566-12.565,33.012,0,45.578c1.953,1.953,4.512,2.929,7.071,2.929
			s5.118-0.976,7.071-2.929c3.905-3.905,3.905-10.237,0-14.143c-4.768-4.767-4.768-12.525,0-17.293
			c4.767-4.77,12.527-4.769,17.293-0.002c0.011,0.011,0.023,0.022,0.034,0.033c0.01,0.01,0.021,0.02,0.031,0.03
			c0.056,0.055,0.112,0.109,0.169,0.162c0.01,0.009,0.02,0.019,0.03,0.028c0.06,0.056,0.121,0.111,0.182,0.165
			c0.005,0.005,0.01,0.009,0.016,0.014c0.914,0.806,1.939,1.418,3.022,1.833c18.606,7.557,30.619,24.927,30.619,44.294
			C414.388,272.659,405.802,287.64,391.63,296.375z"/>
	</g>
</g>
<g>
	<g>
		<path d="M333.837,262.326c-13.936-13.935-36.61-13.934-50.546,0c-6.751,6.751-10.469,15.727-10.469,25.273
			c0,9.547,3.719,18.522,10.469,25.273c1.953,1.952,4.511,2.928,7.071,2.928s5.119-0.977,7.071-2.929
			c3.905-3.905,3.905-10.237,0-14.142c-2.974-2.973-4.611-6.926-4.611-11.13c0-4.205,1.638-8.157,4.611-11.13
			c6.138-6.138,16.125-6.136,22.261,0c3.906,3.905,10.238,3.905,14.143-0.001C337.742,272.563,337.742,266.231,333.837,262.326z"/>
	</g>
</g>
<g>
	<g>
		<path d="M333.837,151.172c-13.936-13.935-36.61-13.934-50.546,0c-6.751,6.751-10.469,15.727-10.469,25.273
			c0,9.547,3.719,18.523,10.469,25.273c1.953,1.952,4.511,2.928,7.071,2.928s5.119-0.977,7.071-2.929
			c3.905-3.905,3.905-10.237,0-14.142c-2.974-2.973-4.611-6.926-4.611-11.13c0-4.204,1.638-8.157,4.611-11.13
			c6.138-6.138,16.125-6.137,22.261,0c3.906,3.905,10.236,3.905,14.143,0C337.742,161.41,337.742,155.078,333.837,151.172z"/>
	</g>
</g>
<g>
</g>
<g>
</g>
<g>
</g>
<g>
</g>
<g>
</g>
<g>
</g>
<g>
</g>
<g>
</g>
<g>
</g>
<g>
</g>
<g>
</g>
<g>
</g>
<g>
</g>
<g>
</g>
<g>
</g>
</svg>
