<?xml version="1.0" encoding="iso-8859-1"?>
<!-- Generator: Adobe Illustrator 19.0.0, SVG Export Plug-In . SVG Version: 6.00 Build 0)  -->
<svg version="1.1" id="Capa_1" xmlns="http://www.w3.org/2000/svg" xmlns:xlink="http://www.w3.org/1999/xlink" x="0px" y="0px"
	 viewBox="0 0 497.688 497.688" style="enable-background:new 0 0 497.688 497.688;" xml:space="preserve">
<g>
	<g>
		<g>
			<path d="M296.844,353.688h-48c-17.648,0-32,14.352-32,32s14.352,32,32,32h8v8c0,13.232,10.768,24,24,24h24v-16h-24
				c-4.416,0-8-3.592-8-8v-56h40v-80h-16V353.688z M256.844,401.688h-8c-8.824,0-16-7.176-16-16c0-8.824,7.176-16,16-16h8V401.688z"
				/>
			<rect x="320.844" y="433.688" width="16" height="16"/>
			<path d="M434.5,392.032c-9.24-9.248-21.536-14.344-34.624-14.344h-19.72c-5.16,0-10.008-2.008-13.656-5.664
				c-3.648-3.64-5.656-8.488-5.656-13.648v-65.552c0-12.36-4.144-24.08-11.72-33.616c27.448-23.688,43.72-58.376,43.72-94.856
				c0-39.24-18.744-76.72-50.424-100.472L248.844,0L154.98,64.088c-31.392,23.544-50.136,61.032-50.136,100.264
				c0,36.92,15.944,70.992,43.72,94.856c-7.576,9.536-11.72,21.256-11.72,33.616v84.864H97.812
				c-13.088,0-25.384,5.096-34.624,14.344c-9.248,9.256-14.344,21.552-14.344,34.624c0,39.168,31.864,71.032,71.032,71.032h257.936
				c39.168,0,71.032-31.864,71.032-71.032C448.844,413.584,443.748,401.288,434.5,392.032z M333.116,76.888
				c27.376,20.536,43.728,53.24,43.728,87.464c0,32.416-14.736,63.208-39.52,83.888c-6.496-4.48-13.856-7.56-21.768-8.88
				l-26.712-4.448v-5.4c10.12-6.792,18.384-16.096,24-26.992v15.168h16V189.24c9.52-5.552,16-15.76,16-27.552v-16
				c0-41.792-26.896-77.344-64.248-90.496c-0.68-8.64-4.752-16.272-10.952-21.624L333.116,76.888z M184.844,289.688v43.792v4.208v88
				c0,8.824-7.176,16-16,16c-8.824,0-16-7.176-16-16V292.824c0-10.2,3.976-19.8,11.184-27.008
				c5.664-5.664,12.832-9.352,20.728-10.672l40.088-6.68v-10.976c7.52,2.672,15.576,4.2,24,4.2s16.48-1.528,24-4.2v10.976
				l28.704,4.784L200.844,322.48v-32.792H184.844z M177.148,175.624c-4.928-2.728-8.304-7.92-8.304-13.936c0-5.896,3.24-11,8-13.776
				v21.776C176.844,171.696,176.98,173.664,177.148,175.624z M176.844,113.688v17.136c-2.464,0.64-4.784,1.584-6.984,2.76
				c5.864-38.376,39-67.896,78.984-67.896s73.12,29.52,78.984,67.896c-2.2-1.176-4.52-2.12-6.984-2.76v-17.136h-41.136
				c-3.576-13.76-15.992-24-30.864-24s-27.288,10.24-30.864,24H176.844z M234.412,50.896c2.568-5.424,8.048-9.208,14.432-9.208
				c6.384,0,11.864,3.784,14.432,9.208c-4.72-0.72-9.512-1.208-14.432-1.208C243.924,49.688,239.132,50.176,234.412,50.896z
				 M328.844,161.688c0,6.016-3.376,11.208-8.304,13.936c0.168-1.96,0.304-3.928,0.304-5.936v-21.776
				C325.604,150.688,328.844,155.792,328.844,161.688z M262.62,113.688h-27.552c2.776-4.76,7.88-8,13.776-8
				S259.844,108.928,262.62,113.688z M192.844,129.688h112v40c0,30.88-25.128,56-56,56s-56-25.12-56-56V129.688z M248.844,19.376
				l14.88,10.152c-4.472-2.368-9.48-3.84-14.88-3.84c-5.392,0-10.4,1.464-14.864,3.832L248.844,19.376z M120.844,164.352
				c0-34.232,16.352-66.928,43.44-87.264l63.744-43.512c-6.192,5.352-10.256,12.976-10.936,21.616
				c-37.352,13.152-64.248,48.704-64.248,90.496v16c0,11.792,6.48,22,16,27.552v28.448h16V202.52c5.616,10.896,13.88,20.2,24,26.992
				v5.4l-26.712,4.456c-7.928,1.32-15.288,4.408-21.792,8.896C135.26,227.408,120.844,197.152,120.844,164.352z M377.812,481.688
				H119.876c-30.344,0-55.032-24.688-55.032-55.032c0-8.672,3.52-17.168,9.656-23.312c6.224-6.224,14.504-9.656,23.312-9.656h39.032
				v32c0,17.648,14.352,32,32,32s32-14.352,32-32v-83.792L322.588,258.2c4.072,1.872,7.84,4.376,11.072,7.616
				c7.208,7.208,11.184,16.808,11.184,27.008v65.552c0,9.44,3.672,18.304,10.344,24.976s15.536,10.336,24.968,10.336h19.72
				c8.816,0,17.088,3.432,23.312,9.656c6.136,6.144,9.656,14.64,9.656,23.312C432.844,457,408.156,481.688,377.812,481.688z"/>
			<path d="M378.22,445l-7.032,7.032l11.312,11.312l7.032-7.032c12.456-12.448,19.312-29.008,19.312-46.624h-16
				C392.844,423.032,387.652,435.568,378.22,445z"/>
			<rect x="240.844" y="137.688" width="16" height="16"/>
			<rect x="272.844" y="161.688" width="24" height="16"/>
			<rect x="200.844" y="161.688" width="24" height="16"/>
		</g>
	</g>
</g>
<g>
</g>
<g>
</g>
<g>
</g>
<g>
</g>
<g>
</g>
<g>
</g>
<g>
</g>
<g>
</g>
<g>
</g>
<g>
</g>
<g>
</g>
<g>
</g>
<g>
</g>
<g>
</g>
<g>
</g>
</svg>
