<?xml version="1.0" encoding="iso-8859-1"?>
<!-- Generator: Adobe Illustrator 19.0.0, SVG Export Plug-In . SVG Version: 6.00 Build 0)  -->
<svg version="1.1" id="Capa_1" xmlns="http://www.w3.org/2000/svg" xmlns:xlink="http://www.w3.org/1999/xlink" x="0px" y="0px"
	 viewBox="0 0 512 512" style="enable-background:new 0 0 512 512;" xml:space="preserve">
<g>
	<g>
		<path d="M215.424,199.456C200.32,214.56,192,234.656,192,256s8.32,41.44,23.424,56.576c6.976,6.976,15.232,12.192,24.064,15.936
			l33.696-151.616C252.064,176.608,230.848,184.064,215.424,199.456z"/>
	</g>
</g>
<g>
	<g>
		<path d="M256,0C114.624,0,0,114.624,0,256s114.624,256,256,256s256-114.624,256-256S397.376,0,256,0z M328.576,312.576
			c6.24-6.24,16.384-6.24,22.624,0s6.24,16.384,0,22.624C330.048,356.352,301.952,368,272,368c-2.816,0-5.536-0.608-8.32-0.8
			l-8.064,36.288C253.984,410.944,247.328,416,240,416c-1.152,0-2.304-0.128-3.488-0.384c-8.64-1.952-14.048-10.464-12.16-19.104
			l8-36c-14.656-5.536-28.16-13.92-39.552-25.344C171.648,314.016,160,285.92,160,256c0-29.92,11.648-58.048,32.8-79.2
			c23.136-23.104,55.648-33.12,87.296-30.976l8.288-37.312c1.92-8.608,10.464-13.984,19.104-12.16
			c8.64,1.92,14.048,10.464,12.16,19.104l-8.16,36.672c14.688,5.248,28.384,13.312,39.712,24.672c6.24,6.24,6.24,16.384,0,22.624
			s-16.384,6.24-22.624,0c-6.976-6.976-15.232-12.16-24.064-15.936l-33.696,151.648C291.936,335.456,313.184,328,328.576,312.576z"
			/>
	</g>
</g>
<g>
</g>
<g>
</g>
<g>
</g>
<g>
</g>
<g>
</g>
<g>
</g>
<g>
</g>
<g>
</g>
<g>
</g>
<g>
</g>
<g>
</g>
<g>
</g>
<g>
</g>
<g>
</g>
<g>
</g>
</svg>
